<svg id="Capa_1" enable-background="new 0 0 512 512" height="512" viewBox="0 0 512 512" width="512" xmlns="http://www.w3.org/2000/svg"><g><path d="m511.082 350.763c-6.717-51.313-51.15-94.567-105.217-87.485-23.231 3.041-43.887 14.947-58.164 33.525-24.648 32.074-18.606 78.219 13.467 102.867 20.882 16.046 48.814 16.664 70.029 3.699 9.499-5.805 10.584-19.216 1.858-26.129-5.92-4.69-12.827-4.599-18.259-1.205-10.32 6.448-24.003 6.201-34.205-1.639-18.137-13.939-21.554-40.034-7.616-58.172 9.089-11.827 22.239-19.406 37.028-21.342 36.049-4.716 65.193 25.951 69.524 60.402 2.38 18.93-6.858 45.902-19.634 60.072-15.314 16.985-35.95 27.854-58.872 30.855-83.772 10.965-147.286-88.562-107.534-171.25 4.845-10.079 11.599-19.09 19.479-27.025 23.214-23.378 39.259-54.23 43.906-89.335 9.292-70.182-39.981-134.5-110.169-143.792-57.888-7.67-110.947 32.98-118.612 90.877-6.348 47.948 27.495 92.12 75.443 98.468 40.102 5.308 77.044-22.995 82.352-63.096 3.567-26.941-10.731-52.093-33.768-63.538-9.966-4.951-21.772 2.036-21.749 13.164.015 6.825 3.754 12.996 9.61 16.507 2.895 1.737 5.497 3.97 7.698 6.64 5.584 6.774 7.846 19.393 5.673 27.899-5.125 20.057-24.608 33.607-45.633 30.826-30.524-4.041-52.069-32.162-48.028-62.686 5.353-40.433 42.398-68.81 82.83-63.462 52.718 6.98 89.734 55.288 82.754 108.01-9.886 74.67-83.769 121.09-146.756 104.454-31.85-8.412-66.587-6.879-99.31 6.647-65.426 27.044-96.49 101.875-69.443 167.306 22.258 53.845 84.168 79.536 138.008 57.282 44.697-18.477 66.03-69.872 47.554-114.57-15.452-37.383-58.436-55.224-95.819-39.771-24.645 10.187-39.197 34.411-38.216 59.574.432 11.066 11.788 18.303 22.022 14.072 6.237-2.578 10.036-8.8 9.827-15.546-.14-4.526.758-9.072 2.695-13.342 3.167-6.98 12.067-14.301 19.385-16.581 20.245-6.307 42.394 3.801 50.648 23.77 11.762 28.455-1.818 61.174-30.273 72.937-37.598 15.541-80.833-2.403-96.375-40.002-20.314-49.146 3.013-105.356 52.162-125.673 55.202-22.818 118.292-2.815 150.752 45.747 5.918 8.854 10.067 18.74 12.853 29.02 17.766 65.551 78.202 117.497 150.17 108.074 61.976-8.114 114.483-61.686 105.925-127.053z" fill="#60b9fe"/><g fill="#1ca8ff"><path d="m347.702 296.802c-24.648 32.074-18.606 78.219 13.467 102.867 20.881 16.046 48.814 16.664 70.029 3.699 9.499-5.805 10.584-19.216 1.858-26.129-5.92-4.69-12.827-4.599-18.259-1.205-10.32 6.448-24.003 6.201-34.205-1.639-18.137-13.939-21.554-40.034-7.616-58.172 9.089-11.827 22.239-19.406 37.028-21.342 8.901-1.164 17.378-.164 25.167 2.51 9.601-8.28 20.944-14.59 33.413-18.298-17.552-12.463-39.224-18.894-62.718-15.816-23.232 3.041-43.888 14.948-58.164 33.525z"/><path d="m203.534 204.153c40.102 5.308 77.043-22.995 82.352-63.096 3.567-26.941-10.731-52.093-33.768-63.538-9.965-4.951-21.773 2.036-21.749 13.164.014 6.825 3.754 12.996 9.61 16.507 2.895 1.737 5.497 3.97 7.698 6.64 5.584 6.774 7.846 19.393 5.673 27.899-5.125 20.057-24.608 33.607-45.633 30.826-30.524-4.041-52.069-32.162-48.028-62.686 4.526-34.188 31.712-59.752 64.443-63.602 6.923-12.24 16.6-22.709 28.189-30.582-1.858-.329-3.729-.627-5.618-.877-57.888-7.67-110.947 32.98-118.612 90.877-6.348 47.948 27.496 92.12 75.443 98.468z"/><path d="m99.508 335.765c-24.645 10.187-39.197 34.411-38.215 59.574.432 11.066 11.788 18.303 22.022 14.072 6.237-2.578 10.036-8.8 9.827-15.546-.14-4.526.758-9.072 2.695-13.342 3.167-6.98 12.067-14.301 19.385-16.581 20.245-6.307 42.393 3.801 50.648 23.77 11.762 28.455-1.818 61.174-30.273 72.937-37.598 15.541-80.833-2.403-96.375-40.002-20.314-49.146 3.013-105.356 52.162-125.673.467-.193.936-.375 1.403-.562 8.523-17.377 22.42-31.629 39.528-40.604-17.781.725-35.728 4.526-53.107 11.709-65.426 27.044-96.49 101.875-69.443 167.306 22.258 53.845 84.168 79.536 138.008 57.282 44.697-18.477 66.03-69.872 47.554-114.57-15.452-37.381-58.437-55.222-95.819-39.77z"/></g></g></svg>